<?xml version="1.0" encoding="utf-8"?>
<svg width="350" height="350" fill="none" xmlns="http://www.w3.org/2000/svg" viewBox="-3.436 -5.55 332.078 223.238">
  <path d="M0 105.757H45.3226C45.3226 105.757 44.0161 118.304 50.4078 125.276C53.2226 128.347 55.6065 130.836 59.6739 130.836C63.7414 130.836 64.7917 128.983 79.3182 128.983C93.8446 128.983 101.546 133.487 111.563 142.326C120.113 149.87 130.838 162.712 130.838 162.712L142.941 112.724L117.374 117.372C117.374 117.372 114.511 116.425 113.307 115.048C112.169 113.747 111.563 110.981 111.563 110.981L123.185 85.9952C123.185 85.9952 125.655 83.1463 127.833 82.5089C129.575 81.9989 132.482 82.5089 132.482 82.5089L155.724 88.9005C155.724 88.9005 159.725 90.0281 161.534 91.8058C163.201 93.4429 164.44 97.0353 164.44 97.0353V184.2C164.44 184.2 128.701 202.903 104.01 202.794C75.4327 202.668 57.3665 195.56 35.4446 177.228C21.1698 165.29 13.3412 156.721 6.39165 139.459C1.38886 127.032 0 105.757 0 105.757Z" fill="#DA6F2B"/>
  <path d="M169.507 25.9219C155.111 13.0344 137.34 4.51545 118.277 1.36272C99.2136 -1.79001 79.6467 0.553977 61.8674 8.12019C44.0881 15.6864 28.8326 28.1616 17.8874 44.0849C6.94216 60.0082 0.760287 78.7204 0.065718 98.0301L44.9296 99.6439C45.3176 88.8592 48.7702 78.4082 54.8832 69.5148C60.9963 60.6215 69.5167 53.654 79.4466 49.4281C89.3765 45.2023 100.305 43.8932 110.952 45.654C121.599 47.4149 131.524 52.1728 139.565 59.3706L169.507 25.9219Z" fill="#DA6F2B"/>
  <path d="M320.622 128.454C320.622 112.749 315.201 98.309 306.129 86.904C306.129 86.904 298.165 92.7754 289.987 105.597C289.772 105.933 289.557 106.275 289.342 106.621C310.651 120.238 320.375 134.24 320.375 134.24C320.538 132.333 320.622 130.404 320.622 128.454Z" fill="#DA6F2B"/>
  <path fill-rule="evenodd" clip-rule="evenodd" d="M280.386 189.761C297.722 182.24 311.243 167.581 317.241 149.493C317.241 149.493 310.105 131.626 284.385 115.597C281.948 120.583 279.661 126.26 277.756 132.662C268.289 164.482 280.386 189.761 280.386 189.761Z" fill="#DA6F2B"/>
  <path fill-rule="evenodd" clip-rule="evenodd" d="M275.304 110.449C272.739 115.696 270.327 121.681 268.289 128.454C257.77 163.43 270.393 193.18 270.393 193.18C265.095 194.532 259.544 195.251 253.826 195.251C244.285 195.251 235.212 193.25 227.002 189.647C227.002 189.647 240.785 151.71 251.985 128.454C255.412 121.337 259.75 113.203 264.149 105.294C265.955 106.047 267.775 106.841 269.604 107.679C271.58 108.585 273.479 109.509 275.304 110.449ZM280.337 101.305C289.754 86.0444 299.321 79.5467 299.321 79.5467C295.067 75.5878 290.296 72.1772 285.12 69.4275C285.12 69.4275 277.806 81.3137 269.428 95.9453C271.074 96.6636 272.712 97.4186 274.338 98.212C276.412 99.2242 278.411 100.258 280.337 101.305Z" fill="#DA6F2B"/>
  <path fill-rule="evenodd" clip-rule="evenodd" d="M251.985 61.6831C252.596 61.6665 253.21 61.6582 253.826 61.6582C261.469 61.6582 268.813 62.942 275.653 65.3058C275.653 65.3058 268.137 77.3508 259.636 92.1033C255.296 90.5774 250.982 89.279 246.795 88.1744C251.985 72.4261 251.985 61.6831 251.985 61.6831ZM243.065 98.0653C241.506 101.731 239.673 105.567 237.521 109.52C223.057 136.081 190.955 151.07 190.955 151.07C196.036 165.193 205.741 177.11 218.243 184.995C218.243 184.995 231.468 147.124 242.518 123.984C245.819 117.07 250.006 109.209 254.284 101.538C250.441 100.207 246.689 99.0576 243.065 98.0653Z" fill="#DA6F2B"/>
  <path fill-rule="evenodd" clip-rule="evenodd" d="M188.171 140.814C187.421 136.809 187.029 132.677 187.029 128.454C187.029 114.962 191.03 102.403 197.91 91.9006C197.91 91.9006 212.294 91.2296 232.804 95.5759C231.374 98.6797 229.715 101.935 227.791 105.312C213.853 129.769 188.171 140.814 188.171 140.814ZM236.776 85.8228C241.729 71.8335 241.729 62.7508 241.729 62.7508C227.804 65.2981 215.387 72.1632 205.918 81.9075C205.918 81.9075 219.234 82.1943 236.776 85.8228Z" fill="#DA6F2B"/>
</svg>